<?xml version="1.0" standalone="no"?>
<!DOCTYPE svg PUBLIC "-//W3C//DTD SVG 20010904//EN"
 "http://www.w3.org/TR/2001/REC-SVG-20010904/DTD/svg10.dtd">
<svg version="1.0" xmlns="http://www.w3.org/2000/svg"
 width="700.000000pt" height="700.000000pt" viewBox="0 0 700.000000 700.000000"
 preserveAspectRatio="xMidYMid meet">
<metadata>
Created by potrace 1.14, written by Peter Selinger 2001-2017
</metadata>
<g transform="translate(0.000000,700.000000) scale(0.100000,-0.100000)"
fill="#000000" stroke="none">
<path d="M1054 6914 c-15 -48 -27 -104 -26 -123 5 -124 5 -123 -16 -140 -50
-38 -49 -128 1 -168 19 -16 22 -28 22 -92 l0 -74 -33 -11 c-48 -16 -99 -61
-125 -109 -21 -41 -22 -52 -25 -379 l-3 -338 -82 -1 c-45 -1 -97 0 -114 1 -27
1 -33 -2 -34 -19 -3 -83 -1 -212 3 -216 2 -3 36 -6 74 -7 l69 -3 0 -465 0
-465 -50 -1 c-27 -1 -61 -2 -75 -3 l-25 -1 2 -107 c1 -60 2 -114 2 -121 1 -7
9 -12 19 -11 56 5 52 43 52 -481 l0 -480 393 0 392 0 -1 472 c-1 260 1 478 5
483 3 6 20 10 36 10 l30 0 2 118 3 117 -28 1 c-15 1 -48 1 -74 1 l-48 0 0 470
0 469 53 -1 c106 -3 96 -16 94 118 l-2 117 -75 2 c-41 1 -93 2 -115 2 l-40 1
-1 333 c0 321 -1 333 -22 374 -28 54 -66 90 -119 115 l-43 19 0 74 c0 60 3 76
18 87 52 36 57 111 11 163 -29 32 -31 40 -25 83 4 26 7 54 9 62 1 13 -8 47
-48 174 l-12 38 -29 -88z"/>
<path d="M5886 6905 c-28 -90 -31 -113 -20 -182 5 -38 3 -47 -25 -78 -45 -52
-41 -127 11 -163 15 -11 18 -27 18 -87 l0 -74 -45 -20 c-52 -23 -88 -59 -118
-116 -20 -38 -21 -56 -21 -372 l-1 -333 -70 -1 c-38 0 -91 0 -117 1 l-46 1 0
-120 0 -121 37 -1 c20 -1 53 0 74 1 l37 2 0 -470 0 -470 -75 2 -74 1 1 -122 2
-123 36 0 37 0 -1 -480 -1 -480 392 0 393 0 2 483 3 482 27 -3 c14 -2 29 2 34
9 6 10 8 114 5 214 -1 18 -7 20 -58 18 -32 0 -65 1 -73 3 -14 3 -16 60 -15
466 l0 463 68 1 c37 1 70 4 73 7 5 4 7 117 5 205 l-1 32 -115 0 -115 0 0 318
c0 181 -4 332 -10 353 -6 20 -20 51 -33 70 -25 38 -93 88 -119 89 -21 0 -20
-4 -22 85 -2 57 1 72 16 83 55 40 59 122 9 171 -28 28 -32 52 -17 116 6 30
-35 199 -53 218 -5 5 -20 -30 -35 -78z"/>
<path d="M3478 5507 c-9 -34 -14 -75 -11 -90 3 -17 0 -34 -9 -45 -8 -9 -18
-25 -21 -35 -7 -19 11 -67 25 -67 4 0 8 -26 8 -59 l0 -58 -78 -58 c-87 -64
-99 -71 -327 -195 -290 -158 -432 -258 -532 -379 -110 -132 -206 -384 -247
-646 -15 -94 -26 -165 -31 -200 -4 -22 -8 -51 -10 -65 -2 -14 -7 -47 -10 -75
-4 -27 -8 -57 -10 -65 -2 -8 -7 -35 -10 -60 -9 -69 -14 -79 -41 -82 -21 -2
-30 -14 -50 -68 -14 -36 -34 -86 -45 -112 -10 -26 -19 -48 -19 -50 0 -2 648
-4 1440 -4 1301 0 1440 1 1435 15 -3 9 -22 61 -44 116 -34 89 -42 101 -66 105
-16 3 -29 12 -30 20 -2 8 -8 51 -15 95 -6 44 -13 91 -16 105 -2 14 -6 45 -10
70 -3 25 -7 52 -9 60 -2 8 -7 38 -11 65 -13 111 -66 355 -95 443 -59 177 -122
286 -225 389 -103 103 -243 197 -469 318 -177 95 -201 108 -280 161 -130 86
-135 92 -135 158 0 31 4 56 9 56 5 0 14 13 21 30 11 25 9 33 -10 60 -16 23
-21 41 -18 68 4 34 -15 116 -31 134 -4 5 -14 -20 -23 -55z"/>
<path d="M550 1455 l0 -1455 1045 0 1045 0 2 813 3 812 27 55 c29 59 94 133
170 194 63 50 246 154 344 195 43 18 86 37 95 41 9 5 62 24 118 44 l103 35
126 -45 c156 -56 360 -155 467 -225 103 -68 196 -163 232 -236 34 -70 33 -38
33 -1010 l0 -673 1045 0 1045 0 0 1455 0 1455 -2950 0 -2950 0 0 -1455z"/>
</g>
</svg>
